<?xml version="1.0" encoding="UTF-8" standalone="no"?>
<!-- Generator: Adobe Illustrator 14.0.0, SVG Export Plug-In . SVG Version: 6.00 Build 43363)  -->

<svg
   xmlns:dc="http://purl.org/dc/elements/1.1/"
   xmlns:cc="http://creativecommons.org/ns#"
   xmlns:rdf="http://www.w3.org/1999/02/22-rdf-syntax-ns#"
   xmlns:svg="http://www.w3.org/2000/svg"
   xmlns="http://www.w3.org/2000/svg"
   xmlns:sodipodi="http://sodipodi.sourceforge.net/DTD/sodipodi-0.dtd"
   xmlns:inkscape="http://www.inkscape.org/namespaces/inkscape"
   version="1.0"
   id="Layer_1"
   x="0px"
   y="0px"
   width="97.277679"
   height="113.67268"
   viewBox="0 0 97.277683 113.67268"
   enable-background="new 0 0 84.047 100"
   xml:space="preserve"
   sodipodi:docname="mentalhealth.svg"
   inkscape:version="0.92.1 r15371"><metadata
   id="metadata11335"><rdf:RDF><cc:Work
       rdf:about=""><dc:format>image/svg+xml</dc:format><dc:type
         rdf:resource="http://purl.org/dc/dcmitype/StillImage" /><dc:title></dc:title></cc:Work></rdf:RDF></metadata><defs
   id="defs11333" /><sodipodi:namedview
   pagecolor="#ffffff"
   bordercolor="#666666"
   borderopacity="1"
   objecttolerance="10"
   gridtolerance="10"
   guidetolerance="10"
   inkscape:pageopacity="0"
   inkscape:pageshadow="2"
   inkscape:window-width="1366"
   inkscape:window-height="706"
   id="namedview11331"
   showgrid="false"
   inkscape:snap-global="false"
   fit-margin-top="0"
   fit-margin-left="0"
   fit-margin-right="0"
   fit-margin-bottom="0"
   inkscape:zoom="2.3586204"
   inkscape:cx="39.904854"
   inkscape:cy="34.189723"
   inkscape:window-x="-8"
   inkscape:window-y="-8"
   inkscape:window-maximized="1"
   inkscape:current-layer="Layer_1" />
<path
   style="fill:#ffffff;"
   d="m 58.224,38.153673 c -2.201,0 -3.994,1.787 -3.994,4.006 0,2.215 1.793,4.001 3.994,4.001 2.208,0 3.994,-1.786 3.994,-4.001 0,-2.219 -1.786,-4.006 -3.994,-4.006 z"
   id="path11322"
   inkscape:connector-curvature="0" />
<path
   style="fill:#ffffff;"
   d="m 57.285,70.968673 c 0,2.215 1.8,4.005 4.012,4.005 2.201,0 3.987,-1.79 3.987,-4.005 0,-2.213 -1.786,-4.003 -3.987,-4.003 -2.213,0 -4.012,1.79 -4.012,4.003 z"
   id="path11324"
   inkscape:connector-curvature="0" />
<path
   style="fill:#ffffff;"
   d="m 28.045,33.809673 c -2.215,0 -4.008,1.794 -4.008,4.012 0,2.212 1.793,4.002 4.008,4.002 2.219,0 4.009,-1.791 4.009,-4.002 0,-2.218 -1.79,-4.012 -4.009,-4.012 z"
   id="path11326"
   inkscape:connector-curvature="0" />
<path
   style="fill:#ffffff;"
   d="m 46.115234,13.672673 c -17.217,0 -33.094531,12.924969 -36.3945309,27.167969 -0.747,3.166 -1.5644531,11.433593 -1.5644531,11.433593 L 0.22851562,72.237126 C 0.07651563,72.596126 0,73.001579 0,73.426579 c 0,1.683 1.3783594,3.056641 3.0683594,3.056641 H 8.15625 v 10.605469 c 0.1283087,0.574303 0.2437777,1.386425 0.2437777,1.386425 l 8.3988003,-4.249707 5.335938,4.744141 -2.273438,2.371094 -3.55664,-4.248047 -7.1093755,5.453125 c 2.1813335,5.566586 7.5862725,9.51172 13.9199215,9.51172 h 5.945313 v 11.61523 H 69.546875 V 81.467595 c 8.83,-6.946 14.5,-17.73775 14.5,-29.84375 0,-20.963 -16.987641,-37.951172 -37.931641,-37.951172 z m 9.783204,9.923828 h 5.58789 l 1.011719,5.802734 c 0.218,0.065 0.437297,0.124125 0.654297,0.203126 0.777,0.286999 1.507265,0.649687 2.197265,1.054687 l 4.646485,-3.271484 3.933594,3.945312 -3.390626,4.814453 c 0.480002,0.922 0.862,1.897156 1.125,2.910156 l 5.597657,0.964844 v 5.587891 l -5.806641,1 c -0.069,0.218 -0.124125,0.436391 -0.203125,0.650391 -0.29,0.780999 -0.6535,1.508124 -1.0625,2.203124 l 3.28125,4.644532 -3.947265,3.947265 -4.8125,-3.398437 c -0.927,0.484 -1.900016,0.867953 -2.916016,1.126953 l -0.888672,5.236328 h 1.837891 l 0.490234,2.798828 c 0.193,0.052 0.388125,0.08139 0.578125,0.150391 0.494,0.183 0.95,0.4175 1.375,0.6875 l 2.21875,-1.558594 1.820312,1.816406 -1.634765,2.320313 c 0.353,0.622 0.630156,1.285328 0.785156,1.986328 l 2.677735,0.458984 v 2.574219 l -2.789063,0.480469 c -0.056,0.196 -0.08334,0.39489 -0.152344,0.587891 -0.183,0.497999 -0.419312,0.956671 -0.695312,1.388671 l 1.566406,2.208985 -1.824219,1.820312 -2.304687,-1.636718 c -0.625,0.353 -1.285235,0.628203 -1.990235,0.783203 l -0.470703,2.68164 h -2.574219 l -0.46289,-2.798828 c -0.2,-0.056 -0.399656,-0.08325 -0.597656,-0.15625 -0.494,-0.183 -0.953813,-0.417453 -1.382813,-0.689453 l -2.222656,1.574219 -1.810547,-1.822266 1.638672,-2.316406 c -0.353,-0.626 -0.630156,-1.285234 -0.785156,-1.990235 l -2.691407,-0.466796 v -2.564454 l 2.8125,-0.478515 c 0.055,-0.197 0.08425,-0.395797 0.15625,-0.591797 0.18,-0.491 0.413594,-0.946 0.683594,-1.375 l -1.568359,-2.222656 1.816406,-1.81836 2.320312,1.638672 c 0.621001,-0.349 1.279469,-0.626156 1.980469,-0.785156 l 0.402344,-2.326172 h -4.847656 l -1.013672,-5.80664 c -0.218,-0.069 -0.435344,-0.124032 -0.652344,-0.207032 -0.781,-0.287 -1.507172,-0.646781 -2.201172,-1.050781 l -4.646484,3.273437 -3.9375,-3.951171 3.388672,-4.796875 c -0.487,-0.929 -0.870813,-1.907735 -1.132813,-2.927735 l -5.583984,-0.960937 v -4.585938 l -2.8125,0.486328 c -0.045,0.135 -0.05642,0.271344 -0.107422,0.402344 -0.184,0.498 -0.420687,0.954484 -0.679688,1.396484 l 2.154297,3.054688 -2.595703,2.587891 -3.164062,-2.230469 c -0.588,0.304 -1.195938,0.551703 -1.835938,0.720703 l -0.638672,3.664063 -3.646484,0.002 -0.664062,-3.822266 c -0.128001,-0.045 -0.262625,-0.05452 -0.390626,-0.103516 -0.501,-0.187 -0.963203,-0.429406 -1.408203,-0.691406 l -3.064453,2.160156 -2.585937,-2.591797 2.242187,-3.175781 c -0.297,-0.581 -0.528265,-1.192265 -0.697265,-1.822265 l -3.6875,-0.63086 v -3.667968 l 3.800781,-0.652344 c 0.042,-0.135 0.07309,-0.265485 0.121094,-0.396485 0.184,-0.501 0.426546,-0.961297 0.685546,-1.404297 l -2.160156,-3.054687 2.582032,-2.589844 3.177734,2.236328 c 0.588,-0.305 1.198797,-0.556562 1.841797,-0.726562 l 0.640625,-3.666016 h 3.644531 l 0.666016,3.824172 c 0.132,0.042 0.267531,0.05161 0.394531,0.09961 0.502,0.187 0.96025,0.4295 1.40625,0.6875 l 3.054687,-2.152343 2.595703,2.589843 -2.246093,3.171875 c 0.305,0.584 0.55275,1.192032 0.71875,1.832032 l 3.662109,0.628906 v 2.664062 l 4.796875,-0.822265 c 0.069,-0.218 0.124031,-0.434344 0.207031,-0.652344 0.287,-0.785 0.6505,-1.522703 1.0625,-2.220703 l -3.294922,-4.626953 3.962891,-3.955078 4.806641,3.398437 c 0.93,-0.485 1.907734,-0.867859 2.927734,-1.130859 z m -42.666016,27.06836 2.035156,2.732421 1.886719,-2.535156 2.765625,1.777344 -2.527344,3.611328 2.751953,3.697266 -2.763672,2.371093 -2.11914,-3.02539 -2.25586,3.222656 -2.763671,-2.371094 2.894531,-3.888672 -2.669922,-3.814453 z"
   id="path11328"
   inkscape:connector-curvature="0"
   sodipodi:nodetypes="scccssccccccccsccccsscccccccccccccccccccccccccccccccccccccccccccccccccccccccccccccccccccccccccccccccccccccccccccccccccccccccccccccccccccccccccc" />
<path
   style="fill:#ffffff;fill-opacity:1;stroke:#ffffff;stroke-width:1px;stroke-linecap:butt;stroke-linejoin:miter;stroke-opacity:1"
   d="M 76.793073,23.087545 83.274713,0.7822897 95.4055,8.5655391 Z"
   id="path11880"
   inkscape:connector-curvature="0" /><path
   style="fill:#ffffff;fill-opacity:1;stroke:#ffffff;stroke-width:1px;stroke-linecap:butt;stroke-linejoin:miter;stroke-opacity:1"
   d="m 82.894314,27.742214 12.359962,-9.875152 1.446573,10.755912 z"
   id="path11882"
   inkscape:connector-curvature="0" /><path
   inkscape:connector-curvature="0"
   id="path11884"
   d="M 72.889534,20.247725 75.806126,4.6984223 65.630091,8.4707697 Z"
   style="fill:#ffffff;fill-opacity:1;stroke:#ffffff;stroke-width:1px;stroke-linecap:butt;stroke-linejoin:miter;stroke-opacity:1" /></svg>